<svg xmlns="http://www.w3.org/2000/svg" width="18" height="18" fill-rule="evenodd" stroke-linejoin="round" stroke-miterlimit="2" clip-rule="evenodd" viewBox="0 0 1956 1956"><path fill="#85919e" fill-rule="nonzero" d="M37.996 1917.11c-50.654-50.654-50.654-132.784 0-183.421L1407.185 364.5c50.654-50.658 132.787-50.658 183.429 0 50.65 50.65 50.65 132.767 0 183.425L221.438 1917.11c-50.654 50.654-132.784 50.654-183.442 0"/><path fill="#77818c" fill-rule="nonzero" d="M1590.626 364.5c-48.946-48.941-127.246-50.583-178.175-4.97 1.792 1.6 3.55 3.254 5.271 4.97 50.65 50.65 50.65 132.767 0 183.425L48.529 1917.11a131 131 0 0 1-5.266 4.97c50.925 45.61 129.233 43.972 178.175-4.97L1590.626 547.925c50.638-50.658 50.638-132.787 0-183.425"/><path fill="#e6e9ee" fill-rule="nonzero" d="M1590.626 364.5c-50.654-50.658-132.787-50.658-183.441 0l-207.992 207.988 183.425 183.442 208.008-208.005c50.638-50.658 50.638-132.787 0-183.425"/><path fill="#dbdbdb" fill-rule="nonzero" d="M1590.626 364.5c-48.946-48.941-127.246-50.583-178.175-4.97 1.792 1.6 3.55 3.254 5.271 4.97 50.65 50.65 50.65 132.767 0 183.425l-121.554 121.55 86.45 86.455 208.008-208.005c50.638-50.658 50.638-132.787 0-183.425"/><path fill="#fcda60" fill-rule="nonzero" d="M1211.918 312.413c-164.113 49.1-203.9 88.896-252.996 252.992-49.088-164.096-88.884-203.892-252.992-252.992 164.108-49.092 203.904-88.888 252.992-252.996 49.096 164.108 88.883 203.904 252.996 252.996m568.4 618.929c-90.542 27.092-112.5 49.046-139.587 139.588-27.092-90.542-49.05-112.496-139.588-139.588 90.537-27.087 112.496-49.045 139.588-139.587 27.087 90.542 49.045 112.5 139.587 139.587"/><path fill="#f3c74d" fill-rule="nonzero" d="M1955.102 189.95c-123.209 36.871-153.084 66.75-189.942 189.959-36.871-123.209-66.75-153.088-189.955-189.959C1698.41 153.092 1728.29 123.213 1765.16.004c36.858 123.209 66.733 153.088 189.942 189.946"/><path fill="#85919e" fill-rule="nonzero" d="M129.717 1955.102c-33.196 0-66.392-12.663-91.721-37.992-50.654-50.654-50.654-132.784 0-183.421l1161.2-1161.201 96.976 96.983L48.529 1917.11a131 131 0 0 1-5.266 4.97c24.57 22.005 55.525 33.013 86.47 33.013 21.005.004 42.005-5.066 61.013-15.204-19.012 10.142-40.02 15.213-61.03 15.213zM1407.184 364.5c25.329-25.329 58.525-37.996 91.72-37.996-33.195 0-66.391 12.667-91.72 37.996"/><path fill="#77818c" fill-rule="nonzero" d="M129.733 1955.093c-30.945 0-61.9-11.008-86.47-33.012 1.787-1.6 3.55-3.254 5.266-4.971L1296.172 669.47l-.004.005 86.45 86.454 208.008-208.005L221.438 1917.11c-.263.262-.53.525-.792.783a129.7 129.7 0 0 1-29.9 21.996c-19.008 10.138-40.008 15.208-61.013 15.204"/><path fill="#e6e9ee" fill-rule="nonzero" d="m1296.172 669.471-96.98-96.983L1407.186 364.5c25.329-25.329 58.525-37.996 91.72-37.996s66.392 12.667 91.721 37.996c25.317 25.317 37.98 58.509 37.98 91.705 0-33.196-12.663-66.388-37.98-91.705-25.325-25.329-58.516-37.987-91.704-37.987-30.946 0-61.896 11.008-86.47 33.017 1.79 1.6 3.55 3.254 5.27 4.97 50.65 50.65 50.65 132.767 0 183.425l-121.554 121.55"/><path fill="#cdcdcc" fill-rule="nonzero" d="m1382.618 755.93-86.45-86.454 121.554-121.55c50.65-50.659 50.65-132.776 0-183.426-1.72-1.716-3.48-3.37-5.27-4.97 24.574-22.009 55.524-33.017 86.47-33.017 33.188 0 66.38 12.658 91.704 37.987 25.317 25.317 37.98 58.509 37.98 91.705s-12.663 66.391-37.98 91.72z"/><path fill="#fcda60" fill-rule="nonzero" d="M958.922 565.405c-49.088-164.096-88.884-203.892-252.992-252.992 164.108-49.092 203.904-88.888 252.992-252.996 49.096 164.108 88.883 203.904 252.996 252.996-164.113 49.1-203.9 88.896-252.996 252.992m681.808 505.525c-27.091-90.542-49.05-112.496-139.587-139.588 90.537-27.087 112.496-49.045 139.588-139.587 27.087 90.542 49.045 112.5 139.587 139.587-90.542 27.092-112.5 49.046-139.587 139.588z"/><path fill="#f3c74d" fill-rule="nonzero" d="M1765.16 379.909c-36.871-123.209-66.75-153.088-189.955-189.959C1698.41 153.092 1728.29 123.213 1765.16.004c36.858 123.209 66.733 153.088 189.942 189.946-123.209 36.871-153.084 66.75-189.942 189.959"/></svg>